Coordinates
version=1
nRows=29
nColumns=24
inDegrees=yes

Units are S.I. units (second, meters, Newtons, ...)
Angles are in degrees.

endheader
time	pelvis_tilt	pelvis_list	pelvis_rotation	pelvis_tx	pelvis_ty	pelvis_tz	hip_flexion_r	hip_adduction_r	hip_rotation_r	knee_angle_r	ankle_angle_r	subtalar_angle_r	mtp_angle_r	hip_flexion_l	hip_adduction_l	hip_rotation_l	knee_angle_l	ankle_angle_l	subtalar_angle_l	mtp_angle_l	lumbar_extension	lumbar_bending	lumbar_rotation
      6.98000000	      6.58014828	     -1.14857298	      5.44253312	      3.25340843	      0.89749362	     -0.16031920	    -30.76677770	      6.11598091	     -6.75410323	     -4.29620617	     14.13996768	      5.28589585	      0.00000000	     16.78821131	      4.83327596	      7.79151782	     -4.47867902	      5.47462040	    -10.50419764	      0.00000000	    -27.83367603	      7.16025884	      2.61595514
      6.99000000	      6.80089796	     -0.96310081	      5.17684191	      3.26948716	      0.89485824	     -0.16125265	    -31.19355912	      5.63239933	     -7.52822720	     -5.80584409	     13.97309883	      6.53601658	      0.00000000	     17.21767115	      5.27576279	      6.23104811	     -7.33222661	      6.52748177	     -8.87512995	      0.00000000	    -27.60639565	      6.64979786	      3.30556592
      7.00000000	      7.07390051	     -0.73543902	      4.65664160	      3.28611632	      0.89247224	     -0.16197251	    -31.57026646	      4.93291496	     -8.23469561	     -7.50367024	     13.54346151	      7.73057591	      0.00000000	     17.25778781	      5.61545237	      4.85088700	     -9.66813988	      7.09502029	     -7.98922268	      0.00000000	    -27.37984412	      5.98613721	      4.13204612
      7.01000000	      7.34423772	     -0.42336658	      3.93653192	      3.30315815	      0.89034604	     -0.16256906	    -31.81936186	      3.99090231	     -8.85864166	     -9.38785590	     12.80154123	      8.79345823	      0.00000000	     17.04204136	      5.96218705	      3.65765356	    -11.56252422	      7.28898120	     -7.79057214	      0.00000000	    -27.10549876	      5.14831214	      5.02855737
      7.02000000	      7.67002356	      0.01734572	      3.14014923	      3.32035448	      0.88860911	     -0.16314433	    -31.97066686	      2.83595022	     -9.42259810	    -11.47216133	     11.65639168	      9.59344591	      0.00000000	     16.61780738	      6.41499869	      2.62799150	    -13.15227811	      7.20129858	     -8.14362424	      0.00000000	    -26.89197478	      4.13720546	      5.86894050
      7.03000000	      8.05933570	      0.59341357	      2.36695898	      3.33746473	      0.88730846	     -0.16377767	    -31.99342755	      1.51547990	     -9.95264681	    -13.78696573	     10.10823910	     10.09696204	      0.00000000	     16.10754799	      7.01898482	      1.73800281	    -14.64983472	      7.05385590	     -8.81845947	      0.00000000	    -26.79294636	      2.98207149	      6.53955220
      7.04000000	      8.52263893	      1.27709127	      1.70148668	      3.35426454	      0.88647238	     -0.16448114	    -31.86589573	      0.11812942	    -10.39697198	    -16.36045555	      8.14374527	     10.22071178	      0.00000000	     15.60873758	      7.75677468	      0.93831528	    -16.25766040	      7.15535974	     -9.49296354	      0.00000000	    -26.86125473	      1.72863008	      6.99209654
      7.05000000	      9.02471005	      2.02036658	      1.23581842	      3.37057782	      0.88604489	     -0.16532000	    -31.51167223	     -1.27238149	    -10.88342683	    -19.25376763	      5.84095295	     10.04614088	      0.00000000	     15.21802130	      8.59105125	      0.25526519	    -18.11249966	      7.61565771	     -9.99288799	      0.00000000	    -27.09232598	      0.46845797	      7.12680762
      7.06000000	      9.65963513	      2.75034273	      0.93522110	      3.38631904	      0.88615845	     -0.16616379	    -31.03144891	     -2.57411440	    -11.24232510	    -22.44436353	      3.17814369	      9.55630265	      0.00000000	     14.78291187	      9.40124709	     -0.41570610	    -20.17558825	      8.80410739	     -9.85017435	      0.00000000	    -27.62122413	     -0.74170790	      7.08729292
      7.07000000	     10.16419645	      3.39317533	      0.77199860	      3.40151626	      0.88647305	     -0.16700889	    -30.09572185	     -3.75570437	    -11.47876174	    -26.01398391	      0.33744080	      8.75550973	      0.00000000	     14.51533435	     10.10000764	     -1.06053694	    -22.33841912	     10.46344632	     -9.20472236	      0.00000000	    -28.11602276	     -1.81188779	      6.86537098
      7.08000000	     10.59370467	      3.96492259	      0.65511855	      3.41621427	      0.88707827	     -0.16782080	    -28.77545167	     -4.89027191	    -11.59313791	    -29.93109526	     -2.55515665	      7.83830357	      0.00000000	     14.17047500	     10.70681059	     -1.60867258	    -24.26846649	     12.29879510	     -8.34933502	      0.00000000	    -28.62331536	     -2.77324449	      6.58277753
      7.09000000	     10.89940936	      4.47699793	      0.48957314	      3.43050873	      0.88794913	     -0.16855062	    -27.04902870	     -6.02596749	    -11.51067368	    -34.10600225	     -5.40267429	      6.84552317	      0.00000000	     13.67161183	     11.21993647	     -2.14220803	    -25.71389372	     14.12648239	     -7.38320640	      0.00000000	    -29.04677561	     -3.65867021	      6.29488537
      7.10000000	     11.06307935	      4.93976643	      0.21399706	      3.44447154	      0.88907565	     -0.16918168	    -24.93618765	     -7.17069342	    -11.15915356	    -38.42894174	     -8.07929645	      5.84238217	      0.00000000	     12.96516142	     11.64490126	     -2.74390395	    -26.51255336	     15.79826293	     -6.39746254	      0.00000000	    -29.32337796	     -4.48852506	      6.05544604
      7.11000000	     11.09411388	      5.34846481	     -0.19276637	      3.45816224	      0.89045957	     -0.16971378	    -22.50990217	     -8.28688810	    -10.51971785	    -42.74701863	    -10.42703222	      4.94028903	      0.00000000	     12.03481343	     11.98208385	     -3.46266728	    -26.63123020	     17.24581254	     -5.42168550	      0.00000000	    -29.43107322	     -5.26486472	      5.86509129
      7.12000000	     11.00723314	      5.67781511	     -0.69189849	      3.47163128	      0.89211731	     -0.17020462	    -19.86888776	     -9.25582355	     -9.56153248	    -46.88457217	    -12.26754076	      4.20115335	      0.00000000	     10.88121272	     12.24538199	     -4.20810335	    -26.09376478	     18.41985241	     -4.53914293	      0.00000000	    -29.36365726	     -5.93562327	      5.72128009
      7.13000000	     10.82433132	      5.87429148	     -1.20495694	      3.48487728	      0.89404483	     -0.17074515	    -17.11529194	     -9.95115743	     -8.37377924	    -50.70791486	    -13.42759316	      3.72573157	      0.00000000	      9.55720410	     12.42011867	     -4.85516056	    -25.04132451	     19.26552904	     -3.90819692	      0.00000000	    -29.14351958	     -6.41013498	      5.60986257
      7.14000000	     10.59442464	      5.93257911	     -1.60601715	      3.49789337	      0.89626551	     -0.17143932	    -14.39756595	    -10.30832503	     -7.13286705	    -54.11915037	    -13.71784581	      3.63218749	      0.00000000	      8.09476742	     12.51942132	     -5.29019873	    -23.64566383	     19.83509749	     -3.45282229	      0.00000000	    -28.84648613	     -6.63944430	      5.38218776
      7.15000000	     10.33494661	      5.83367545	     -1.80210304	      3.51065956	      0.89878310	     -0.17235285	    -11.79144685	    -10.28655789	     -5.97143005	    -57.07412983	    -13.11578661	      3.91477977	      0.00000000	      6.55545126	     12.53037758	     -5.37763537	    -22.06655953	     20.12497914	     -3.24531220	      0.00000000	    -28.51665199	     -6.58261889	      4.97105452
      7.16000000	     10.00134677	      5.60038001	     -1.69786711	      3.52318260	      0.90149973	     -0.17358276	     -9.26500154	     -9.93972698	     -5.06118779	    -59.60096435	    -11.65360628	      4.53439678	      0.00000000	      5.05185514	     12.46549608	     -5.00211666	    -20.43230424	     20.18288613	     -3.28909612	      0.00000000	    -28.11740773	     -6.24243507	      4.33574035
      7.17000000	      9.61186580	      5.27309794	     -1.28159537	      3.53546868	      0.90440555	     -0.17514913	     -6.80163468	     -9.37819652	     -4.48835081	    -61.75195759	     -9.54273469	      5.37595364	      0.00000000	      3.58431160	     12.35683399	     -4.06547542	    -18.76544818	     19.82816682	     -3.83019980	      0.00000000	    -27.67848914	     -5.67226246	      3.48587396
      7.18000000	      9.23888925	      4.87934730	     -0.58386411	      3.54750702	      0.90750355	     -0.17698840	     -4.42143975	     -8.70319955	     -4.27899139	    -63.59057512	     -7.03997929	      6.37907575	      0.00000000	      2.12256524	     12.17694406	     -2.75352247	    -17.13960765	     19.23826584	     -4.69316900	      0.00000000	    -27.29610183	     -4.92894105	      2.35158380
      7.19000000	      8.84186155	      4.46969547	      0.34075742	      3.55935490	      0.91065529	     -0.17903916	     -2.03962329	     -8.04337759	     -4.42626248	    -65.16228829	     -4.40744959	      7.32665932	      0.00000000	      0.71900471	     11.94758786	     -1.19107581	    -15.55369151	     18.43687463	     -5.74147807	      0.00000000	    -26.90235822	     -4.10576685	      1.03801001
      7.20000000	      8.42849745	      4.07296406	      1.40289720	      3.57103319	      0.91377582	     -0.18119031	      0.33986817	     -7.47123823	     -4.84329765	    -66.47071323	     -1.84766373	      8.05716876	      0.00000000	     -0.62280054	     11.68297759	      0.49077963	    -14.00775218	     17.43423318	     -6.96156691	      0.00000000	    -26.50112348	     -3.27938069	     -0.37649347
      7.21000000	      7.99476155	      3.70371970	      2.49467755	      3.58258476	      0.91678656	     -0.18331953	      2.69485243	     -7.01975564	     -5.40759858	    -67.48721546	      0.54814845	      8.47547161	      0.00000000	     -1.90210682	     11.39491770	      2.16489006	    -12.47972841	     16.25414811	     -8.31825111	      0.00000000	    -26.07714941	     -2.50961139	     -1.78792806
      7.22000000	      7.59740444	      3.38898878	      3.53579168	      3.59403243	      0.91969513	     -0.18532736	      4.93033513	     -6.70502716	     -6.01566937	    -68.18659928	      2.73411702	      8.50905224	      0.00000000	     -3.20889844	     11.12080394	      3.86240069	    -10.92051488	     14.87554157	     -9.91011881	      0.00000000	    -25.70103993	     -1.86154734	     -3.12001788
      7.23000000	      7.16674009	      3.06734520	      4.44875806	      3.60536871	      0.92239079	     -0.18714294	      7.13423352	     -6.43791981	     -6.55714669	    -68.57193004	      4.65304288	      8.22205964	      0.00000000	     -4.44661325	     10.80263636	      5.46810726	     -9.35058038	     13.27733600	    -11.71659894	      0.00000000	    -25.30021166	     -1.27930300	     -4.24318289
      7.24000000	      6.77368982	      2.76773636	      5.22380538	      3.61659941	      0.92491878	     -0.18874732	      9.22887047	     -6.23071218	     -7.02060195	    -68.65312220	      6.27352481	      7.66554122	      0.00000000	     -5.72001504	     10.47445327	      7.10510877	     -7.73711637	     11.37475439	    -13.87378294	      0.00000000	    -24.96545249	     -0.80015569	     -5.17156332
      7.25000000	      6.37919576	      2.45223085	      5.86609226	      3.62771869	      0.92719296	     -0.19015068	     11.27203533	     -6.02219657	     -7.39688786	    -68.44280358	      7.57141214	      6.86505870	      0.00000000	     -6.97712267	     10.09823924	      8.81965150	     -6.10045208	      9.23255622	    -16.39101892	      0.00000000	    -24.65265112	     -0.37338408	     -5.86750774
      7.26000000	      5.99235427	      2.13710031	      6.42422861	      3.63870685	      0.92920182	     -0.19138860	     13.24508208	     -5.82399169	     -7.73098727	    -67.94184987	      8.53494964	      5.84836118	      0.00000000	     -8.20883302	      9.67776108	     10.57859533	     -4.48069636	      6.86042006	    -19.15177670	      0.00000000	    -24.38023202	     -0.00060170	     -6.41214408
